<svg width="128" height="128" viewBox="0 0 128 128" fill="none" xmlns="http://www.w3.org/2000/svg">
<circle cx="64" cy="64" r="64" fill="#0066FF"/>
<path d="M71.5061 57.7427H118.691C118.691 79.4346 96.8248 95.4182 63.4502 95.4182C30.0755 95.4182 13.9636 77.1513 13.9636 57.7427H71.5061ZM71.5061 57.7427L74.9586 34.9091H33.5281L34.6789 56.601" stroke="white" stroke-width="2.5" stroke-linejoin="round"/>
<path d="M85.0318 73.2315C85.0318 77.0436 87.9911 80.0494 91.5394 80.0494C95.0877 80.0494 98.047 77.0436 98.047 73.2315C98.047 69.4194 95.0877 66.4136 91.5394 66.4136C87.9911 66.4136 85.0318 69.4194 85.0318 73.2315Z" stroke="white" stroke-width="2.5"/>
<path d="M59.8197 75.2485C59.8197 79.0606 62.779 82.0664 66.3273 82.0664C69.8756 82.0664 72.8349 79.0606 72.8349 75.2485C72.8349 71.4364 69.8756 68.4306 66.3273 68.4306C62.779 68.4306 59.8197 71.4364 59.8197 75.2485Z" stroke="white" stroke-width="2.5"/>
<path d="M34.6076 73.2315C34.6076 77.0436 37.5669 80.0494 41.1152 80.0494C44.6634 80.0494 47.6227 77.0436 47.6227 73.2315C47.6227 69.4194 44.6634 66.4136 41.1152 66.4136C37.5669 66.4136 34.6076 69.4194 34.6076 73.2315Z" stroke="white" stroke-width="2.5"/>
<path d="M58.5697 59.1127V44.9939H44.9939L46.2281 59.1127" stroke="white" stroke-width="2.5" stroke-linejoin="round"/>
</svg>
